<svg xmlns="http://www.w3.org/2000/svg" xmlns:xlink="http://www.w3.org/1999/xlink" width="500" zoomAndPan="magnify" viewBox="0 0 375 374.999991" height="500" preserveAspectRatio="xMidYMid meet" version="1.0"><defs><clipPath id="99578c0d98"><path d="M 37.5 37.5 L 337.5 37.5 L 337.5 337.5 L 37.5 337.5 Z M 37.5 37.5 " clip-rule="nonzero"/></clipPath><clipPath id="213e3f94f3"><path d="M 187.5 37.5 C 104.65625 37.5 37.5 104.65625 37.5 187.5 C 37.5 270.34375 104.65625 337.5 187.5 337.5 C 270.34375 337.5 337.5 270.34375 337.5 187.5 C 337.5 104.65625 270.34375 37.5 187.5 37.5 Z M 187.5 37.5 " clip-rule="nonzero"/></clipPath><clipPath id="725235f448"><path d="M 102.375 102.375 L 272.820312 102.375 L 272.820312 272.820312 L 102.375 272.820312 Z M 102.375 102.375 " clip-rule="nonzero"/></clipPath></defs><g clip-path="url(#99578c0d98)"><g clip-path="url(#213e3f94f3)"><path fill="#f59cbb" d="M 37.5 37.5 L 337.5 37.5 L 337.5 337.5 L 37.5 337.5 Z M 37.5 37.5 " fill-opacity="1" fill-rule="nonzero"/></g></g><g clip-path="url(#725235f448)"><path fill="#f8f6b3" d="M 152.429688 102.375 C 124.953125 102.375 102.375 124.921875 102.375 152.429688 L 102.375 222.554688 C 102.375 250.027344 124.921875 272.609375 152.429688 272.609375 L 222.554688 272.609375 C 250.027344 272.609375 272.609375 250.058594 272.609375 222.554688 L 272.609375 152.429688 C 272.609375 124.953125 250.058594 102.375 222.554688 102.375 Z M 152.429688 117.851562 L 222.554688 117.851562 C 241.6875 117.851562 257.132812 133.296875 257.132812 152.429688 L 257.132812 222.554688 C 257.132812 241.6875 241.6875 257.132812 222.554688 257.132812 L 152.429688 257.132812 C 133.296875 257.132812 117.851562 241.6875 117.851562 222.554688 L 117.851562 152.429688 C 117.851562 133.296875 133.296875 117.851562 152.429688 117.851562 Z M 233.191406 134.777344 C 229.292969 134.777344 226.179688 137.890625 226.179688 141.789062 C 226.179688 145.6875 229.292969 148.800781 233.191406 148.800781 C 237.09375 148.800781 240.207031 145.6875 240.207031 141.789062 C 240.207031 137.890625 237.09375 134.777344 233.191406 134.777344 Z M 187.492188 141.0625 C 161.949219 141.0625 141.0625 161.949219 141.0625 187.492188 C 141.0625 213.03125 161.949219 233.917969 187.492188 233.917969 C 213.03125 233.917969 233.917969 213.03125 233.917969 187.492188 C 233.917969 161.949219 213.03125 141.0625 187.492188 141.0625 Z M 187.492188 156.539062 C 204.691406 156.539062 218.441406 170.292969 218.441406 187.492188 C 218.441406 204.691406 204.691406 218.441406 187.492188 218.441406 C 170.292969 218.441406 156.539062 204.691406 156.539062 187.492188 C 156.539062 170.292969 170.292969 156.539062 187.492188 156.539062 Z M 187.492188 156.539062 " fill-opacity="1" fill-rule="nonzero"/></g></svg>