<svg xmlns="http://www.w3.org/2000/svg" xmlns:xlink="http://www.w3.org/1999/xlink" width="500" zoomAndPan="magnify" viewBox="0 0 375 374.999991" height="500" preserveAspectRatio="xMidYMid meet" version="1.0"><defs><clipPath id="953016f7c0"><path d="M 37.5 37.5 L 337.5 37.5 L 337.5 337.5 L 37.5 337.5 Z M 37.5 37.5 " clip-rule="nonzero"/></clipPath><clipPath id="708e4a5981"><path d="M 187.5 37.5 C 104.65625 37.5 37.5 104.65625 37.5 187.5 C 37.5 270.34375 104.65625 337.5 187.5 337.5 C 270.34375 337.5 337.5 270.34375 337.5 187.5 C 337.5 104.65625 270.34375 37.5 187.5 37.5 Z M 187.5 37.5 " clip-rule="nonzero"/></clipPath><clipPath id="84d69e5273"><path d="M 93.519531 89.375 L 282 89.375 L 282 278 L 93.519531 278 Z M 93.519531 89.375 " clip-rule="nonzero"/></clipPath></defs><g clip-path="url(#953016f7c0)"><g clip-path="url(#708e4a5981)"><path fill="#9bd2e0" d="M 37.5 37.5 L 337.5 37.5 L 337.5 337.5 L 37.5 337.5 Z M 37.5 37.5 " fill-opacity="1" fill-rule="nonzero"/></g></g><g clip-path="url(#84d69e5273)"><path fill="#f8f6b3" d="M 276.175781 214.285156 C 279.5625 204.535156 281.457031 194.246094 281.457031 183.414062 C 281.457031 172.582031 279.5625 162.15625 276.175781 152.539062 C 276.042969 152.269531 276.042969 152 275.90625 151.730469 C 262.90625 115.441406 228.109375 89.445312 187.488281 89.445312 C 146.867188 89.445312 112.070312 115.441406 99.070312 151.59375 C 98.9375 151.863281 98.800781 152.132812 98.800781 152.40625 C 95.414062 162.15625 93.519531 172.582031 93.519531 183.414062 C 93.519531 194.246094 95.414062 204.671875 98.800781 214.285156 C 98.9375 214.554688 98.9375 214.824219 99.070312 215.097656 C 112.070312 251.382812 146.867188 277.246094 187.488281 277.246094 C 228.109375 277.246094 262.90625 251.25 275.90625 215.097656 C 276.042969 214.824219 276.042969 214.554688 276.175781 214.285156 Z M 187.488281 263.839844 C 183.96875 263.839844 178.144531 257.34375 173.269531 242.851562 C 170.96875 235.8125 169.074219 227.824219 167.71875 219.160156 L 207.121094 219.160156 C 205.765625 227.824219 203.871094 235.949219 201.570312 242.851562 C 196.832031 257.34375 191.007812 263.839844 187.488281 263.839844 Z M 166.09375 205.753906 C 165.417969 198.578125 165.148438 191.128906 165.148438 183.414062 C 165.148438 175.695312 165.554688 168.246094 166.09375 161.070312 L 208.746094 161.070312 C 209.421875 168.246094 209.695312 175.695312 209.695312 183.414062 C 209.695312 191.128906 209.289062 198.578125 208.746094 205.753906 Z M 106.925781 183.414062 C 106.925781 175.695312 108.007812 168.113281 110.039062 161.070312 L 152.554688 161.070312 C 151.878906 168.382812 151.605469 175.964844 151.605469 183.414062 C 151.605469 190.859375 151.878906 198.441406 152.554688 205.753906 L 110.175781 205.753906 C 108.144531 198.578125 106.925781 191.128906 106.925781 183.414062 Z M 187.488281 102.847656 C 191.007812 102.847656 196.832031 109.347656 201.707031 123.835938 C 204.007812 130.875 205.902344 138.867188 207.257812 147.53125 L 167.71875 147.53125 C 169.074219 138.730469 170.96875 130.742188 173.269531 123.835938 C 178.144531 109.347656 183.832031 102.847656 187.488281 102.847656 Z M 222.285156 161.070312 L 264.800781 161.070312 C 266.832031 168.113281 267.914062 175.695312 267.914062 183.414062 C 267.914062 191.128906 266.832031 198.710938 264.800781 205.753906 L 222.285156 205.753906 C 222.964844 198.441406 223.234375 190.859375 223.234375 183.414062 C 223.234375 175.828125 222.964844 168.382812 222.285156 161.070312 Z M 259.523438 147.53125 L 220.796875 147.53125 C 218.359375 131.011719 214.296875 116.253906 208.476562 105.691406 C 230.816406 111.785156 249.367188 127.222656 259.523438 147.53125 Z M 166.367188 105.691406 C 160.542969 116.253906 156.480469 131.011719 154.042969 147.53125 L 115.453125 147.53125 C 125.609375 127.222656 144.023438 111.785156 166.367188 105.691406 Z M 115.453125 219.160156 L 154.179688 219.160156 C 156.617188 235.675781 160.679688 250.4375 166.5 260.996094 C 144.023438 255.039062 125.609375 239.605469 115.453125 219.160156 Z M 208.476562 261.132812 C 214.296875 250.570312 218.359375 235.8125 220.796875 219.292969 L 259.523438 219.292969 C 249.367188 239.605469 230.816406 255.039062 208.476562 261.132812 Z M 208.476562 261.132812 " fill-opacity="1" fill-rule="nonzero"/></g></svg>