<svg xmlns="http://www.w3.org/2000/svg" xmlns:xlink="http://www.w3.org/1999/xlink" width="500" zoomAndPan="magnify" viewBox="0 0 375 374.999991" height="500" preserveAspectRatio="xMidYMid meet" version="1.0"><defs><clipPath id="9ede142a01"><path d="M 37.5 37.5 L 337.5 37.5 L 337.5 337.5 L 37.5 337.5 Z M 37.5 37.5 " clip-rule="nonzero"/></clipPath><clipPath id="77be99cd5c"><path d="M 187.5 37.5 C 104.65625 37.5 37.5 104.65625 37.5 187.5 C 37.5 270.34375 104.65625 337.5 187.5 337.5 C 270.34375 337.5 337.5 270.34375 337.5 187.5 C 337.5 104.65625 270.34375 37.5 187.5 37.5 Z M 187.5 37.5 " clip-rule="nonzero"/></clipPath><clipPath id="7241cc529b"><path d="M 105.4375 101.71875 L 282.613281 101.71875 L 282.613281 278.890625 L 105.4375 278.890625 Z M 105.4375 101.71875 " clip-rule="nonzero"/></clipPath></defs><g clip-path="url(#9ede142a01)"><g clip-path="url(#77be99cd5c)"><path fill="#f8f6b3" d="M 37.5 37.5 L 337.5 37.5 L 337.5 337.5 L 37.5 337.5 Z M 37.5 37.5 " fill-opacity="1" fill-rule="nonzero"/></g></g><g clip-path="url(#7241cc529b)"><path fill="#9bd2e0" d="M 280.453125 231.808594 C 281.75 235.265625 282.503906 238.976562 282.617188 242.863281 C 282.644531 243.230469 282.644531 243.601562 282.644531 243.984375 C 282.644531 263.277344 266.996094 278.925781 247.703125 278.925781 C 169.132812 278.925781 105.4375 215.234375 105.4375 136.660156 C 105.4375 117.371094 121.089844 101.71875 140.378906 101.71875 C 140.765625 101.71875 141.132812 101.71875 141.503906 101.75 C 145.386719 101.863281 149.113281 102.617188 152.570312 103.910156 L 165.6875 160.703125 C 165.6875 160.730469 165.675781 160.746094 165.644531 160.761719 L 141.589844 171.574219 L 141.519531 171.601562 C 152.558594 205.21875 179.148438 231.808594 212.765625 242.847656 L 212.792969 242.777344 L 223.621094 218.707031 L 280.453125 231.808594 " fill-opacity="1" fill-rule="nonzero"/></g></svg>